<?xml version="1.0" encoding="UTF-8" standalone="no"?>
<!-- Created with Inkscape (http://www.inkscape.org/) -->

<svg
   xmlns:dc="http://purl.org/dc/elements/1.1/"
   xmlns:cc="http://creativecommons.org/ns#"
   xmlns:rdf="http://www.w3.org/1999/02/22-rdf-syntax-ns#"
   xmlns:svg="http://www.w3.org/2000/svg"
   xmlns="http://www.w3.org/2000/svg"
   xmlns:sodipodi="http://sodipodi.sourceforge.net/DTD/sodipodi-0.dtd"
   xmlns:inkscape="http://www.inkscape.org/namespaces/inkscape"
   width="5000"
   height="5000"
   viewBox="0 0 5000 5000"
   id="svg2"
   version="1.1"
   inkscape:version="0.91 r13725"
   sodipodi:docname="logo.svg"
   inkscape:export-filename="C:\Users\Gregory Perrotte\sublogo.png"
   inkscape:export-xdpi="6.4406252"
   inkscape:export-ydpi="6.4406252">
  <defs
     id="defs4" />
  <sodipodi:namedview
     id="base"
     pagecolor="#ffffff"
     bordercolor="#666666"
     borderopacity="1.0"
     inkscape:pageopacity="0.0"
     inkscape:pageshadow="2"
     inkscape:zoom="0.088427979"
     inkscape:cx="1884.2639"
     inkscape:cy="2785.9189"
     inkscape:document-units="px"
     inkscape:current-layer="g4362"
     showgrid="false"
     inkscape:window-width="1366"
     inkscape:window-height="705"
     inkscape:window-x="1912"
     inkscape:window-y="32"
     inkscape:window-maximized="1"
     units="px" />
  <metadata
     id="metadata7">
    <rdf:RDF>
      <cc:Work
         rdf:about="">
        <dc:format>image/svg+xml</dc:format>
        <dc:type
           rdf:resource="http://purl.org/dc/dcmitype/StillImage" />
        <dc:title />
      </cc:Work>
    </rdf:RDF>
  </metadata>
  <g
     inkscape:groupmode="layer"
     id="layer3"
     inkscape:label="Merged"
     style="display:inline"
     transform="translate(0,1500)" />
  <g
     inkscape:label="Layer 1"
     inkscape:groupmode="layer"
     id="layer1"
     transform="translate(0,3947.6378)">
    <text
       xml:space="preserve"
       style="font-style:normal;font-weight:normal;font-size:180px;line-height:125%;font-family:sans-serif;letter-spacing:0px;word-spacing:0px;fill:#000000;fill-opacity:1;stroke:none;stroke-width:1px;stroke-linecap:butt;stroke-linejoin:miter;stroke-opacity:1"
       x="512.6524"
       y="-273.46295"
       id="text3335"
       sodipodi:linespacing="125%"><tspan
         sodipodi:role="line"
         id="tspan3337"
         x="512.6524"
         y="-273.46295" /></text>
    <text
       xml:space="preserve"
       style="font-style:normal;font-weight:normal;font-size:180px;line-height:125%;font-family:sans-serif;letter-spacing:0px;word-spacing:0px;fill:#000000;fill-opacity:1;stroke:none;stroke-width:1px;stroke-linecap:butt;stroke-linejoin:miter;stroke-opacity:1"
       x="1113.6932"
       y="-2147.2959"
       id="text3357"
       sodipodi:linespacing="125%"><tspan
         sodipodi:role="line"
         id="tspan3359"
         x="1113.6932"
         y="-2147.2959" /></text>
    <text
       xml:space="preserve"
       style="font-style:normal;font-weight:normal;font-size:180px;line-height:125%;font-family:sans-serif;letter-spacing:0px;word-spacing:0px;fill:#000000;fill-opacity:1;stroke:none;stroke-width:1px;stroke-linecap:butt;stroke-linejoin:miter;stroke-opacity:1"
       x="198.87378"
       y="-1007.0862"
       id="text3377"
       sodipodi:linespacing="125%"><tspan
         sodipodi:role="line"
         id="tspan3379"
         x="198.87378"
         y="-1007.0862" /></text>
  </g>
  <g
     inkscape:label="Layer 1 copy 1 copy"
     inkscape:groupmode="layer"
     id="g4633"
     transform="translate(0,3947.6378)"
     style="display:none">
    <text
       xml:space="preserve"
       style="font-style:normal;font-weight:normal;font-size:180px;line-height:125%;font-family:sans-serif;letter-spacing:0px;word-spacing:0px;fill:#000000;fill-opacity:1;stroke:none;stroke-width:1px;stroke-linecap:butt;stroke-linejoin:miter;stroke-opacity:1"
       x="512.6524"
       y="-273.46295"
       id="text4635"
       sodipodi:linespacing="125%"><tspan
         sodipodi:role="line"
         id="tspan4637"
         x="512.6524"
         y="-273.46295" /></text>
    <text
       xml:space="preserve"
       style="font-style:normal;font-weight:normal;font-size:180px;line-height:125%;font-family:sans-serif;letter-spacing:0px;word-spacing:0px;fill:#000000;fill-opacity:1;stroke:none;stroke-width:1px;stroke-linecap:butt;stroke-linejoin:miter;stroke-opacity:1"
       x="1113.6932"
       y="-2147.2959"
       id="text4639"
       sodipodi:linespacing="125%"><tspan
         sodipodi:role="line"
         id="tspan4641"
         x="1113.6932"
         y="-2147.2959" /></text>
    <text
       xml:space="preserve"
       style="font-style:normal;font-weight:normal;font-size:180px;line-height:125%;font-family:sans-serif;letter-spacing:0px;word-spacing:0px;fill:#000000;fill-opacity:1;stroke:none;stroke-width:1px;stroke-linecap:butt;stroke-linejoin:miter;stroke-opacity:1"
       x="198.87378"
       y="-1007.0862"
       id="text4643"
       sodipodi:linespacing="125%"><tspan
         sodipodi:role="line"
         id="tspan4645"
         x="198.87378"
         y="-1007.0862" /></text>
    <g
       id="g4649"
       transform="translate(-647.34639,75.64129)">
      <g
         transform="translate(476.84755,-92)"
         id="g4651">
        <g
           id="g4673"
           transform="translate(22.490783,24)">
          <text
             sodipodi:linespacing="125%"
             id="text4653"
             y="434.97583"
             x="1199.9185"
             style="font-style:normal;font-weight:normal;font-size:180px;line-height:125%;font-family:sans-serif;letter-spacing:0px;word-spacing:0px;fill:#000000;fill-opacity:1;stroke:#000000;stroke-width:7;stroke-linecap:butt;stroke-linejoin:miter;stroke-miterlimit:4;stroke-dasharray:none;stroke-opacity:1"
             xml:space="preserve"><tspan
               style="font-style:normal;font-variant:normal;font-weight:normal;font-stretch:normal;font-size:935px;font-family:Tahoma;-inkscape-font-specification:Tahoma;fill:#ffffff;stroke:#000000;stroke-width:7;stroke-miterlimit:4;stroke-dasharray:none;stroke-opacity:1"
               y="434.97583"
               x="1199.9185"
               id="tspan4655"
               sodipodi:role="line">ω</tspan></text>
          <text
             sodipodi:linespacing="125%"
             id="text4657"
             y="279.86517"
             x="1909.8019"
             style="font-style:normal;font-weight:normal;font-size:180px;line-height:125%;font-family:sans-serif;letter-spacing:0px;word-spacing:0px;fill:#000000;fill-opacity:1;stroke:#000000;stroke-width:7;stroke-linecap:butt;stroke-linejoin:miter;stroke-miterlimit:4;stroke-dasharray:none;stroke-opacity:1"
             xml:space="preserve"><tspan
               style="font-style:normal;font-variant:normal;font-weight:bold;font-stretch:normal;font-size:756.25px;font-family:'Times New Roman';-inkscape-font-specification:'Times New Roman, Bold';fill:#ffffff;stroke:#000000;stroke-width:7;stroke-miterlimit:4;stroke-dasharray:none;stroke-opacity:1"
               y="279.86517"
               x="1909.8019"
               id="tspan4659"
               sodipodi:role="line">χ</tspan></text>
        </g>
      </g>
      <g
         style="stroke:#000000;stroke-width:7;stroke-miterlimit:4;stroke-dasharray:none;stroke-opacity:1"
         transform="translate(449.1534,-88.19531)"
         id="g4661">
        <text
           xml:space="preserve"
           style="font-style:normal;font-weight:normal;font-size:180px;line-height:125%;font-family:sans-serif;letter-spacing:0px;word-spacing:0px;fill:#000000;fill-opacity:1;stroke:#000000;stroke-width:7;stroke-linecap:butt;stroke-linejoin:miter;stroke-miterlimit:4;stroke-dasharray:none;stroke-opacity:1"
           x="1025.3048"
           y="-238.10774"
           id="text4663"
           sodipodi:linespacing="125%"><tspan
             sodipodi:role="line"
             id="tspan4665"
             x="1025.3048"
             y="-238.10774"
             style="font-style:normal;font-variant:normal;font-weight:normal;font-stretch:normal;font-size:2250px;font-family:'Lucida Sans Unicode';-inkscape-font-specification:'Lucida Sans Unicode';fill:#ffffff;stroke:#000000;stroke-width:7;stroke-miterlimit:4;stroke-dasharray:none;stroke-opacity:1">G</tspan></text>
        <text
           xml:space="preserve"
           style="font-style:normal;font-variant:normal;font-weight:normal;font-stretch:semi-condensed;font-size:1250px;line-height:125%;font-family:'Lucida Console';-inkscape-font-specification:'Lucida Console Semi-Condensed';letter-spacing:0px;word-spacing:0px;fill:#000000;fill-opacity:1;stroke:#000000;stroke-width:7;stroke-linecap:butt;stroke-linejoin:miter;stroke-miterlimit:4;stroke-dasharray:none;stroke-opacity:1"
           x="1409.7943"
           y="-476.75623"
           id="text4667"
           sodipodi:linespacing="125%"><tspan
             sodipodi:role="line"
             id="tspan4669"
             x="1409.7943"
             y="-476.75623"
             style="font-size:1846.25px;fill:#ffffff;stroke:#000000;stroke-width:7;stroke-miterlimit:4;stroke-dasharray:none;stroke-opacity:1">P</tspan></text>
      </g>
    </g>
  </g>
  <g
     transform="translate(0,3947.6378)"
     id="g4679"
     inkscape:groupmode="layer"
     inkscape:label="Layer 1 copy 1 copy copy"
     style="display:inline">
    <circle
       style="fill:#b3b3b3;fill-opacity:1;stroke:#000000;stroke-width:31.59735298;stroke-miterlimit:4;stroke-dasharray:none;stroke-opacity:1"
       id="path4314"
       cx="2489.6238"
       cy="-1458.014"
       r="2378.8054" />
    <path
       style="fill:#006a00;fill-opacity:1;fill-rule:evenodd;stroke:#000000;stroke-width:1px;stroke-linecap:butt;stroke-linejoin:miter;stroke-opacity:1"
       d="m 325.12037,-483.3127 c 0,0 203.44493,-29.64613 636.40583,-31.12855 319.9711,-1.09555 1442.2893,107.22055 1539.1336,148.72525 96.8444,41.5047 562.1831,26.65312 1219.3243,-85.10754 583.4274,-99.22408 952.7565,-60.15899 952.7565,-60.15899 L 4434.0884,-92.476581 4102.0506,291.44219 3702.9179,590.11295 3327.2957,768.7466 3083.5512,843.30534 1918.5926,838.79403 1570.3718,732.76378 1047.9944,440.16744 632.94711,35.496331 Z"
       id="path4316"
       inkscape:connector-curvature="0"
       sodipodi:nodetypes="csssccccccccccc" />
    <text
       sodipodi:linespacing="125%"
       id="text4683"
       y="-273.46295"
       x="512.6524"
       style="font-style:normal;font-weight:normal;font-size:180px;line-height:125%;font-family:sans-serif;letter-spacing:0px;word-spacing:0px;fill:#000000;fill-opacity:1;stroke:none;stroke-width:1px;stroke-linecap:butt;stroke-linejoin:miter;stroke-opacity:1"
       xml:space="preserve"><tspan
         y="-273.46295"
         x="512.6524"
         id="tspan4685"
         sodipodi:role="line" /></text>
    <text
       sodipodi:linespacing="125%"
       id="text4687"
       y="-2147.2959"
       x="1113.6932"
       style="font-style:normal;font-weight:normal;font-size:180px;line-height:125%;font-family:sans-serif;letter-spacing:0px;word-spacing:0px;fill:#000000;fill-opacity:1;stroke:none;stroke-width:1px;stroke-linecap:butt;stroke-linejoin:miter;stroke-opacity:1"
       xml:space="preserve"><tspan
         y="-2147.2959"
         x="1113.6932"
         id="tspan4689"
         sodipodi:role="line" /></text>
    <text
       sodipodi:linespacing="125%"
       id="text4691"
       y="-1007.0862"
       x="198.87378"
       style="font-style:normal;font-weight:normal;font-size:180px;line-height:125%;font-family:sans-serif;letter-spacing:0px;word-spacing:0px;fill:#000000;fill-opacity:1;stroke:none;stroke-width:1px;stroke-linecap:butt;stroke-linejoin:miter;stroke-opacity:1"
       xml:space="preserve"><tspan
         y="-1007.0862"
         x="198.87378"
         id="tspan4693"
         sodipodi:role="line" /></text>
  </g>
  <g
     style="display:inline"
     inkscape:label="Layer 1 copy 1 copy copy copy"
     inkscape:groupmode="layer"
     id="g4362"
     transform="translate(0,3947.6378)">
    <text
       xml:space="preserve"
       style="font-style:normal;font-weight:normal;font-size:180px;line-height:125%;font-family:sans-serif;letter-spacing:0px;word-spacing:0px;fill:#000000;fill-opacity:1;stroke:none;stroke-width:1px;stroke-linecap:butt;stroke-linejoin:miter;stroke-opacity:1"
       x="512.6524"
       y="-273.46295"
       id="text4366"
       sodipodi:linespacing="125%"><tspan
         sodipodi:role="line"
         id="tspan4368"
         x="512.6524"
         y="-273.46295" /></text>
    <text
       xml:space="preserve"
       style="font-style:normal;font-weight:normal;font-size:180px;line-height:125%;font-family:sans-serif;letter-spacing:0px;word-spacing:0px;fill:#000000;fill-opacity:1;stroke:none;stroke-width:1px;stroke-linecap:butt;stroke-linejoin:miter;stroke-opacity:1"
       x="1113.6932"
       y="-2147.2959"
       id="text4370"
       sodipodi:linespacing="125%"><tspan
         sodipodi:role="line"
         id="tspan4372"
         x="1113.6932"
         y="-2147.2959" /></text>
    <text
       xml:space="preserve"
       style="font-style:normal;font-weight:normal;font-size:180px;line-height:125%;font-family:sans-serif;letter-spacing:0px;word-spacing:0px;fill:#000000;fill-opacity:1;stroke:none;stroke-width:1px;stroke-linecap:butt;stroke-linejoin:miter;stroke-opacity:1"
       x="198.87378"
       y="-1007.0862"
       id="text4374"
       sodipodi:linespacing="125%"><tspan
         sodipodi:role="line"
         id="tspan4376"
         x="198.87378"
         y="-1007.0862" /></text>
    <path
       sodipodi:nodetypes="cccccccccccccccccccc"
       inkscape:connector-curvature="0"
       id="path4382"
       d="m 1946.8909,879.00914 216.6289,39.1439 260.9924,24.8627 315.9571,-14.9151 372.0418,-70.4783 c 1.0203,-1039.5884 288.4875,-2902.71084 1150.3813,-3890.62774 l -55.1548,-70.7937 -164.9872,-146.7776 -190.2724,-154.5813 -258.4744,-147.6867 -174.3308,-85.848 -232.5866,-78.5113 -391.7008,-93.3856 -363.3891,-18.1902 -416.6083,49.3923 -390.8349,119.2975 -253.4097,114.1995 -283.121,174.7331 c -269.08748,223.8148 -259.38107,235.3389 -289.88058,272.358 C 1885.8823,-1710.4338 1883.4911,-275.74586 1946.8909,879.00914 Z"
       style="font-style:normal;font-weight:normal;font-size:180px;line-height:125%;font-family:sans-serif;letter-spacing:0px;word-spacing:0px;display:inline;fill:#666666;fill-opacity:1;stroke:#000000;stroke-width:3;stroke-linecap:butt;stroke-linejoin:miter;stroke-miterlimit:4;stroke-dasharray:none;stroke-opacity:1" />
    <g
       id="g4384"
       transform="matrix(1.0633354,0,0,1.0633354,617.32861,-730.33825)"
       style="fill:#003c77;fill-opacity:1;stroke:#ffffff;stroke-width:12;stroke-miterlimit:4;stroke-dasharray:none;stroke-opacity:1">
      <g
         transform="translate(22.490783,24)"
         id="g4386"
         style="fill:#003c77;fill-opacity:1;stroke:#ffffff;stroke-width:12;stroke-miterlimit:4;stroke-dasharray:none;stroke-opacity:1">
        <g
           style="font-style:normal;font-weight:normal;font-size:180px;line-height:125%;font-family:sans-serif;letter-spacing:0px;word-spacing:0px;fill:#003c77;fill-opacity:1;stroke:#ffffff;stroke-width:12;stroke-linecap:butt;stroke-linejoin:miter;stroke-miterlimit:4;stroke-dasharray:none;stroke-opacity:1"
           id="text4388">
          <path
             d="m 1848.2095,206.2478 q 0,40.63233 -10.5005,87.65625 -10.5005,46.56739 -30.5884,78.06885 -21.9141,34.69727 -54.7852,55.69824 -32.871,21.00098 -83.5473,21.00098 -42.002,0 -76.6992,-22.37061 -34.6973,-22.3706 -50.6763,-53.41552 l -5.4785,0 q -17.3487,31.958 -52.0459,53.87207 -34.2407,21.91406 -75.3296,21.91406 -47.937,0 -82.6343,-21.00098 -34.2407,-21.00097 -55.6982,-55.69824 -20.5445,-33.32764 -31.0449,-75.78613 -10.044,-42.4585 -10.044,-89.93897 0,-83.09082 27.3926,-148.376462 27.3926,-65.2856446 82.1777,-132.854004 l 101.8091,0 0,7.76123 q -58.894,52.502442 -91.3086,119.614258 -32.4145,67.111818 -32.4145,153.854978 0,26.47949 4.1088,55.69824 4.1089,29.21875 14.6094,54.78516 10.5005,24.65332 29.6753,41.54541 19.1748,16.89209 48.3936,16.89209 36.5234,0 56.6113,-17.34863 20.0879,-17.34863 26.0229,-36.97998 l 0,-266.621096 84.917,0 0,266.621096 q 3.1958,6.3916 9.5874,17.80517 6.8482,10.95703 14.6094,17.80518 10.5005,8.67432 22.3706,13.69629 12.3267,5.02197 36.0669,5.02197 29.2188,0 48.3936,-16.89209 19.6313,-16.89209 29.6753,-41.54541 10.0439,-24.65332 14.1528,-52.95898 4.5654,-28.30567 4.5654,-57.52442 0,-86.74316 -32.8711,-154.768064 -32.8711,-68.024902 -90.852,-118.701172 l 0,-7.76123 101.8091,0 q 54.3286,66.6552734 81.7212,130.571289 27.8491,63.916017 27.8491,150.659177 z"
             style="font-style:normal;font-variant:normal;font-weight:normal;font-stretch:normal;font-size:935px;font-family:Tahoma;-inkscape-font-specification:Tahoma;fill:#003c77;fill-opacity:1;stroke:#ffffff;stroke-width:12;stroke-miterlimit:4;stroke-dasharray:none;stroke-opacity:1"
             id="path4195"
             inkscape:connector-curvature="0" />
        </g>
        <g
           style="font-style:normal;font-weight:normal;font-size:180px;line-height:125%;font-family:sans-serif;letter-spacing:0px;word-spacing:0px;fill:#003c77;fill-opacity:1;stroke:#ffffff;stroke-width:12;stroke-linecap:butt;stroke-linejoin:miter;stroke-miterlimit:4;stroke-dasharray:none;stroke-opacity:1"
           id="text4392">
          <path
             d="m 2157.9464,-65.395447 94.5313,0 -135.1502,286.178587 22.1558,80.13001 q 14.7705,54.65088 31.018,64.25171 16.2476,9.60083 30.2796,9.60083 48.3734,0 52.4353,-55.38941 l 13.6627,0 q -0.7385,63.51319 -17.7246,93.42346 -16.6168,30.27954 -50.9583,30.27954 -26.9561,0 -42.4652,-22.15576 -15.509,-22.15576 -30.6488,-76.43737 l -24.3713,-90.1001 -88.6231,187.21618 -96.3775,0 149.9206,-313.13476 -20.3094,-69.421388 q -12.5549,-42.834473 -26.9562,-52.8045659 -14.032,-10.3393555 -33.6029,-10.3393555 -50.2197,0 -55.3894,55.7586674 l -14.032,0 q 4.8004,-121.85669 72.0062,-121.85669 27.3255,0 42.4653,18.463135 15.509,18.093872 30.2795,70.529175 l 21.048,76.068115 76.8066,-160.26001 z"
             style="font-style:normal;font-variant:normal;font-weight:bold;font-stretch:normal;font-size:756.25px;font-family:'Times New Roman';-inkscape-font-specification:'Times New Roman, Bold';fill:#003c77;fill-opacity:1;stroke:#ffffff;stroke-width:12;stroke-miterlimit:4;stroke-dasharray:none;stroke-opacity:1"
             id="path4198"
             inkscape:connector-curvature="0" />
        </g>
      </g>
    </g>
    <g
       id="text4396"
       style="font-style:normal;font-weight:normal;font-size:180px;line-height:125%;font-family:sans-serif;letter-spacing:0px;word-spacing:0px;fill:#ffffff;fill-opacity:1;stroke:#003c77;stroke-width:16.56680679;stroke-linecap:butt;stroke-linejoin:miter;stroke-miterlimit:4;stroke-dasharray:none;stroke-opacity:1"
       transform="matrix(1.2072333,0,0,1.2072333,-582.88812,147.51291)">
      <path
         inkscape:connector-curvature="0"
         id="path4189"
         style="font-style:normal;font-variant:normal;font-weight:normal;font-stretch:normal;font-size:2250px;font-family:'Lucida Sans Unicode';-inkscape-font-specification:'Lucida Sans Unicode';fill:#ffffff;fill-opacity:1;stroke:#003c77;stroke-width:16.56680679;stroke-miterlimit:4;stroke-dasharray:none;stroke-opacity:1"
         d="m 3167.5076,-1022.5719 q -295.5323,84.59473 -515.2588,84.59473 -387.8174,0 -595.459,-219.72653 -206.543,-220.8252 -206.543,-633.9112 0,-406.4941 209.8389,-629.5166 210.9375,-224.1211 592.1631,-224.1211 244.9951,0 513.0615,73.6084 l 0,213.1348 q -336.1816,-114.2578 -515.2588,-114.2578 -263.6719,0 -409.79,179.0771 -145.0196,177.9786 -145.0196,503.1739 0,321.8994 156.0059,500.9765 156.0059,179.0772 437.2559,179.0772 115.3564,0 249.3896,-40.6494 l 0,-529.5411 229.6143,0 0,658.0811 z" />
    </g>
    <g
       id="text4400"
       style="font-style:normal;font-variant:normal;font-weight:normal;font-stretch:semi-condensed;font-size:1250px;line-height:125%;font-family:'Lucida Console';-inkscape-font-specification:'Lucida Console Semi-Condensed';letter-spacing:0px;word-spacing:0px;fill:#ffffff;fill-opacity:1;stroke:#003c77;stroke-width:16.56680679;stroke-linecap:butt;stroke-linejoin:miter;stroke-miterlimit:4;stroke-dasharray:none;stroke-opacity:1"
       transform="matrix(1.1970207,0,0,1.1970207,-550.50324,127.16151)">
      <path
         inkscape:connector-curvature="0"
         id="path4192"
         style="font-size:1845px;fill:#ffffff;fill-opacity:1;stroke:#003c77;stroke-width:16.56680679;stroke-miterlimit:4;stroke-dasharray:none;stroke-opacity:1"
         d="m 2325.8789,-1217.275 0,-1155.8277 375.6665,0 q 200.896,0 286.4795,36.0352 174.7705,75.6738 174.7705,291.8848 0,181.9775 -141.438,285.5786 -140.5371,103.601 -388.2788,103.601 l -129.7265,0 0,438.7281 -177.4732,0 z m 177.4732,-572.0581 110.8081,0 q 360.3515,0 360.3515,-252.2461 0,-106.3037 -68.4668,-152.2486 -67.5659,-45.9448 -226.1206,-45.9448 l -176.5722,0 0,450.4395 z" />
    </g>
    <circle
       r="2378.8054"
       cy="-1447.6378"
       cx="2500"
       id="circle4404"
       style="fill:none;fill-opacity:1;stroke:#000000;stroke-width:50;stroke-miterlimit:4;stroke-dasharray:none;stroke-opacity:1" />
  </g>
</svg>
